FILE "Emit Value Pack (Japan) (Disc 1) (Vol. 1 - Toki no Maigo) (Track 01).bin" BINARY
  TRACK 01 MODE2/2352
    INDEX 01 00:00:00
FILE "Emit Value Pack (Japan) (Disc 1) (Vol. 1 - Toki no Maigo) (Track 02).bin" BINARY
  TRACK 02 AUDIO
    INDEX 00 00:00:00
    INDEX 01 00:02:34
FILE "Emit Value Pack (Japan) (Disc 1) (Vol. 1 - Toki no Maigo) (Track 03).bin" BINARY
  TRACK 03 AUDIO
    INDEX 00 00:00:00
    INDEX 01 00:02:07
FILE "Emit Value Pack (Japan) (Disc 1) (Vol. 1 - Toki no Maigo) (Track 04).bin" BINARY
  TRACK 04 AUDIO
    INDEX 00 00:00:00
    INDEX 01 00:02:56
FILE "Emit Value Pack (Japan) (Disc 1) (Vol. 1 - Toki no Maigo) (Track 05).bin" BINARY
  TRACK 05 AUDIO
    INDEX 00 00:00:00
    INDEX 01 00:02:64
FILE "Emit Value Pack (Japan) (Disc 1) (Vol. 1 - Toki no Maigo) (Track 06).bin" BINARY
  TRACK 06 AUDIO
    INDEX 00 00:00:00
    INDEX 01 00:02:12
FILE "Emit Value Pack (Japan) (Disc 1) (Vol. 1 - Toki no Maigo) (Track 07).bin" BINARY
  TRACK 07 AUDIO
    INDEX 00 00:00:00
    INDEX 01 00:02:60
FILE "Emit Value Pack (Japan) (Disc 1) (Vol. 1 - Toki no Maigo) (Track 08).bin" BINARY
  TRACK 08 AUDIO
    INDEX 00 00:00:00
    INDEX 01 00:02:46
FILE "Emit Value Pack (Japan) (Disc 1) (Vol. 1 - Toki no Maigo) (Track 09).bin" BINARY
  TRACK 09 AUDIO
    INDEX 00 00:00:00
    INDEX 01 00:02:37
FILE "Emit Value Pack (Japan) (Disc 1) (Vol. 1 - Toki no Maigo) (Track 10).bin" BINARY
  TRACK 10 AUDIO
    INDEX 00 00:00:00
    INDEX 01 00:02:74
FILE "Emit Value Pack (Japan) (Disc 1) (Vol. 1 - Toki no Maigo) (Track 11).bin" BINARY
  TRACK 11 AUDIO
    INDEX 00 00:00:00
    INDEX 01 00:02:25
FILE "Emit Value Pack (Japan) (Disc 1) (Vol. 1 - Toki no Maigo) (Track 12).bin" BINARY
  TRACK 12 AUDIO
    INDEX 00 00:00:00
    INDEX 01 00:02:20
FILE "Emit Value Pack (Japan) (Disc 1) (Vol. 1 - Toki no Maigo) (Track 13).bin" BINARY
  TRACK 13 AUDIO
    INDEX 00 00:00:00
    INDEX 01 00:02:57
FILE "Emit Value Pack (Japan) (Disc 1) (Vol. 1 - Toki no Maigo) (Track 14).bin" BINARY
  TRACK 14 AUDIO
    INDEX 00 00:00:00
    INDEX 01 00:02:43
FILE "Emit Value Pack (Japan) (Disc 1) (Vol. 1 - Toki no Maigo) (Track 15).bin" BINARY
  TRACK 15 AUDIO
    INDEX 00 00:00:00
    INDEX 01 00:02:70
FILE "Emit Value Pack (Japan) (Disc 1) (Vol. 1 - Toki no Maigo) (Track 16).bin" BINARY
  TRACK 16 AUDIO
    INDEX 00 00:00:00
    INDEX 01 00:02:13
FILE "Emit Value Pack (Japan) (Disc 1) (Vol. 1 - Toki no Maigo) (Track 17).bin" BINARY
  TRACK 17 AUDIO
    INDEX 00 00:00:00
    INDEX 01 00:02:03
FILE "Emit Value Pack (Japan) (Disc 1) (Vol. 1 - Toki no Maigo) (Track 18).bin" BINARY
  TRACK 18 AUDIO
    INDEX 00 00:00:00
    INDEX 01 00:02:31
FILE "Emit Value Pack (Japan) (Disc 1) (Vol. 1 - Toki no Maigo) (Track 19).bin" BINARY
  TRACK 19 AUDIO
    INDEX 00 00:00:00
    INDEX 01 00:02:33
FILE "Emit Value Pack (Japan) (Disc 1) (Vol. 1 - Toki no Maigo) (Track 20).bin" BINARY
  TRACK 20 AUDIO
    INDEX 00 00:00:00
    INDEX 01 00:02:73
FILE "Emit Value Pack (Japan) (Disc 1) (Vol. 1 - Toki no Maigo) (Track 21).bin" BINARY
  TRACK 21 AUDIO
    INDEX 00 00:00:00
    INDEX 01 00:02:19
FILE "Emit Value Pack (Japan) (Disc 1) (Vol. 1 - Toki no Maigo) (Track 22).bin" BINARY
  TRACK 22 AUDIO
    INDEX 00 00:00:00
    INDEX 01 00:02:72
FILE "Emit Value Pack (Japan) (Disc 1) (Vol. 1 - Toki no Maigo) (Track 23).bin" BINARY
  TRACK 23 AUDIO
    INDEX 00 00:00:00
    INDEX 01 00:02:38
FILE "Emit Value Pack (Japan) (Disc 1) (Vol. 1 - Toki no Maigo) (Track 24).bin" BINARY
  TRACK 24 AUDIO
    INDEX 00 00:00:00
    INDEX 01 00:02:64
FILE "Emit Value Pack (Japan) (Disc 1) (Vol. 1 - Toki no Maigo) (Track 25).bin" BINARY
  TRACK 25 AUDIO
    INDEX 00 00:00:00
    INDEX 01 00:02:54
FILE "Emit Value Pack (Japan) (Disc 1) (Vol. 1 - Toki no Maigo) (Track 26).bin" BINARY
  TRACK 26 AUDIO
    INDEX 00 00:00:00
    INDEX 01 00:02:73
FILE "Emit Value Pack (Japan) (Disc 1) (Vol. 1 - Toki no Maigo) (Track 27).bin" BINARY
  TRACK 27 AUDIO
    INDEX 00 00:00:00
    INDEX 01 00:02:73
